<?xml version="1.0" standalone="no"?>
<!DOCTYPE svg PUBLIC "-//W3C//DTD SVG 20010904//EN"
 "http://www.w3.org/TR/2001/REC-SVG-20010904/DTD/svg10.dtd">
<svg version="1.0" xmlns="http://www.w3.org/2000/svg"
 width="300.000000pt" height="300.000000pt" viewBox="0 0 300.000000 300.000000"
 preserveAspectRatio="xMidYMid meet">
<metadata>
Created by potrace 1.10, written by Peter Selinger 2001-2011
</metadata>
<g transform="translate(0.000000,300.000000) scale(0.100000,-0.100000)"
fill="#000000" stroke="none">
<path d="M1248 2326 c-73 -26 -106 -47 -156 -99 -27 -28 -33 -41 -30 -68 4
-42 31 -47 36 -7 7 59 153 147 258 156 63 5 146 -15 189 -45 18 -12 17 -13
-12 -7 -26 5 -33 3 -33 -10 0 -21 71 -56 113 -56 33 0 35 3 46 44 16 63 14 76
-9 76 -13 0 -20 -7 -20 -20 0 -25 -2 -25 -49 4 -93 59 -221 71 -333 32z"/>
<path d="M1444 2104 c-12 -3 -39 -20 -61 -39 l-39 -33 -60 20 c-81 28 -170 21
-294 -22 -52 -18 -122 -36 -155 -39 l-60 -6 -3 -57 -3 -57 152 -208 c84 -114
153 -209 154 -211 5 -6 175 41 317 89 94 31 174 51 220 55 40 4 91 15 113 24
60 27 178 40 361 40 164 0 164 0 164 23 0 16 -58 80 -199 221 l-199 199 -193
3 c-107 1 -204 0 -215 -2z m556 -203 l175 -168 -70 9 c-39 5 -122 10 -185 11
-123 2 -189 -13 -224 -52 -16 -18 -24 -12 -172 141 -152 157 -155 161 -137
181 36 40 69 46 258 46 l180 1 175 -169z m-726 114 c46 -14 61 -26 130 -105
71 -81 239 -249 251 -250 15 -2 35 -13 35 -21 0 -16 -26 -10 -45 11 -15 17
-31 20 -93 20 -66 0 -85 -5 -166 -41 -91 -42 -184 -68 -242 -69 -29 0 -41 14
-173 193 l-141 192 32 8 c18 4 80 23 138 42 118 39 191 44 274 20z m-114 -490
c61 6 123 24 295 88 46 17 89 26 125 26 40 0 49 -3 35 -9 -11 -5 -36 -9 -55
-9 -19 -1 -93 -21 -165 -45 -160 -55 -295 -90 -305 -79 -45 49 -280 382 -280
396 0 11 63 -68 143 -177 l142 -197 65 6z m1000 177 c39 -5 -7 -9 -155 -12
-187 -5 -215 -8 -257 -27 -35 -16 -45 -18 -41 -7 6 15 49 41 93 55 27 9 268 3
360 -9z"/>
<path d="M1716 2004 c-8 -21 -7 -119 2 -169 6 -31 12 -40 27 -40 16 0 20 6 17
32 -2 27 3 35 28 48 28 14 30 14 55 -12 14 -15 25 -31 25 -35 0 -5 9 -8 20 -8
39 0 21 40 -52 121 -73 79 -109 97 -122 63z m62 -86 c-22 -13 -28 -9 -28 19 0
26 0 26 20 8 16 -14 17 -20 8 -27z"/>
<path d="M1145 1934 c-33 -13 -63 -28 -68 -33 -6 -6 5 -31 26 -63 19 -29 47
-74 62 -100 26 -46 47 -59 60 -38 4 6 -3 27 -15 47 -11 19 -20 36 -18 37 54
23 58 52 7 48 -29 -2 -39 2 -53 22 -16 25 -16 25 29 45 41 18 57 42 37 54 -4
3 -34 -6 -67 -19z"/>
<path d="M735 1848 c-4 -11 46 -91 146 -235 83 -120 154 -221 158 -225 5 -6
516 141 582 167 10 3 20 2 24 -4 11 -19 67 -12 92 11 21 20 41 22 270 36 137
8 252 18 258 23 25 24 -21 27 -240 14 -126 -8 -242 -14 -256 -15 -14 0 -39
-12 -54 -26 -17 -16 -33 -23 -44 -18 -9 3 -23 8 -31 11 -9 2 -92 -19 -185 -48
-293 -89 -400 -118 -403 -111 -4 13 -283 407 -297 421 -12 13 -15 12 -20 -1z"/>
<path d="M655 1201 c-37 -16 -75 -63 -81 -102 -5 -29 -11 -39 -25 -39 -16 0
-19 -8 -19 -45 0 -38 3 -45 20 -45 19 0 20 -7 20 -115 l0 -115 45 0 45 0 0
115 0 115 45 0 45 0 0 45 0 45 -45 0 c-37 0 -45 3 -45 18 0 30 21 42 72 42
l48 0 0 45 0 45 -52 -1 c-29 0 -62 -4 -73 -8z m79 -27 c23 -9 9 -24 -20 -24
-37 0 -60 -15 -74 -50 -11 -26 -10 -33 5 -50 9 -10 28 -20 41 -22 32 -4 36
-22 6 -26 -52 -8 -62 -29 -62 -129 0 -76 -3 -93 -15 -93 -12 0 -15 17 -15 92
0 81 -3 95 -22 115 l-22 23 21 28 c11 15 24 42 27 59 12 55 81 96 130 77z"/>
<path d="M2450 960 l0 -220 40 0 40 0 0 220 0 220 -40 0 -40 0 0 -220z m50 0
c0 -113 -4 -180 -10 -180 -6 0 -10 67 -10 180 0 113 4 180 10 180 6 0 10 -67
10 -180z"/>
<path d="M854 1051 c-64 -29 -89 -72 -89 -153 0 -52 5 -73 21 -94 51 -68 121
-89 200 -59 64 24 97 77 97 154 0 74 -29 126 -87 152 -52 23 -90 23 -142 0z
m124 -26 c108 -44 97 -224 -16 -254 -121 -33 -207 72 -157 192 15 36 36 53 84
68 38 11 47 10 89 -6z"/>
<path d="M861 979 c-54 -53 -54 -105 0 -158 34 -35 65 -39 109 -16 67 35 75
118 18 174 -43 42 -86 42 -127 0z m94 -5 c25 -10 47 -62 40 -95 -13 -60 -88
-79 -124 -33 -52 66 8 157 84 128z"/>
<path d="M1824 1051 c-64 -29 -89 -72 -89 -153 0 -52 5 -73 21 -94 53 -72 132
-93 206 -54 38 20 43 20 54 6 6 -9 19 -16 28 -16 14 0 16 18 16 160 0 166 -3
178 -40 145 -15 -14 -21 -13 -61 5 -55 24 -83 25 -135 1z m125 -31 c28 -11 57
-17 66 -14 13 5 15 -9 15 -100 0 -95 -2 -106 -18 -106 -10 0 -35 -9 -56 -20
-41 -20 -99 -20 -137 1 -47 24 -68 103 -47 169 14 43 30 59 76 76 48 17 43 17
101 -6z"/>
<path d="M1824 973 c-48 -52 -47 -99 1 -148 55 -55 120 -44 155 26 27 51 21
80 -25 126 -46 46 -86 45 -131 -4z m120 -24 c14 -17 26 -37 26 -45 0 -24 -28
-71 -45 -78 -81 -31 -142 68 -80 129 33 34 67 32 99 -6z"/>
<path d="M1173 1045 c-39 -17 -53 -42 -53 -94 0 -28 7 -48 24 -68 21 -25 33
-29 95 -33 103 -7 88 -24 -24 -28 l-95 -3 0 -39 0 -40 114 0 c109 0 114 1 140
26 19 20 26 37 26 66 0 75 -28 98 -130 107 -94 9 -81 25 23 29 l87 3 0 44 0
45 -87 0 c-52 -1 -101 -6 -120 -15z m172 -30 c0 -5 -29 -11 -65 -13 -65 -3
-100 -20 -100 -48 0 -23 43 -44 91 -44 62 0 99 -28 99 -75 0 -49 -28 -65 -117
-65 -39 0 -75 5 -78 10 -4 6 19 10 61 10 66 0 104 16 104 43 0 29 -34 47 -87
47 -69 0 -91 12 -99 54 -8 47 2 73 34 85 34 12 157 9 157 -4z"/>
<path d="M1483 1045 c-39 -17 -53 -42 -53 -94 0 -28 7 -48 24 -68 21 -25 33
-29 95 -33 103 -7 88 -24 -24 -28 l-95 -3 0 -39 0 -40 114 0 c109 0 114 1 140
26 19 20 26 37 26 66 0 75 -28 98 -130 107 -94 9 -81 25 23 29 l87 3 0 44 0
45 -87 0 c-52 -1 -101 -6 -120 -15z m167 -30 c0 -12 -14 -15 -62 -15 -62 0
-98 -17 -98 -46 0 -22 43 -44 87 -44 68 0 103 -25 103 -72 0 -51 -30 -68 -120
-68 -47 0 -80 4 -80 10 0 6 29 10 67 10 67 0 103 16 103 45 0 23 -48 45 -98
45 -60 0 -81 15 -89 62 -10 64 23 86 125 87 49 1 62 -2 62 -14z"/>
<path d="M2111 942 c3 -91 8 -124 22 -145 40 -62 122 -84 181 -49 30 18 36 19
47 6 6 -8 18 -14 25 -14 11 0 14 31 14 160 l0 160 -45 0 -45 0 0 -103 c0 -88
-3 -106 -18 -120 -24 -22 -55 -21 -75 1 -14 15 -17 40 -17 120 l0 102 -46 0
-46 0 3 -118z m59 -12 l0 -89 33 -25 c42 -32 64 -33 102 -2 29 23 30 29 35
115 7 127 24 116 28 -18 2 -97 1 -109 -15 -114 -10 -3 -38 -13 -62 -22 -53
-19 -103 -7 -128 31 -16 25 -31 180 -19 210 14 36 26 -3 26 -86z"/>
</g>
</svg>
